<?xml version="1.0" encoding="UTF-8"?>
<!DOCTYPE svg PUBLIC "-//W3C//DTD SVG 1.1//EN" "http://www.w3.org/Graphics/SVG/1.1/DTD/svg11.dtd">
<svg xmlns="http://www.w3.org/2000/svg" version="1.1" width="492px" height="506px" style="shape-rendering:geometricPrecision; text-rendering:geometricPrecision; image-rendering:optimizeQuality; fill-rule:evenodd; clip-rule:evenodd" xmlns:xlink="http://www.w3.org/1999/xlink">
<g><path style="opacity:1" fill="#007f01" d="M 279.5,27.5 C 279.833,27.5 280.167,27.5 280.5,27.5C 288.793,32.6171 297.793,36.6171 307.5,39.5C 322.221,46.5717 335.221,55.9051 346.5,67.5C 346.539,68.5832 346.873,69.5832 347.5,70.5C 353.557,75.881 359.223,81.7144 364.5,88C 365.094,88.4643 365.761,88.631 366.5,88.5C 370.237,92.3021 373.237,96.6355 375.5,101.5C 378.477,106.674 381.311,112.008 384,117.5C 384.708,118.381 385.542,119.047 386.5,119.5C 393.213,135.854 398.88,152.521 403.5,169.5C 404.37,175.816 406.37,181.816 409.5,187.5C 415.052,197.645 420.885,207.645 427,217.5C 431.632,225.284 436.799,232.618 442.5,239.5C 446.902,248.64 452.069,257.306 458,265.5C 458.953,268.432 459.453,271.432 459.5,274.5C 459.5,274.833 459.5,275.167 459.5,275.5C 452.879,280.309 445.545,283.809 437.5,286C 438.056,286.383 438.389,286.883 438.5,287.5C 438.167,287.5 437.833,287.5 437.5,287.5C 432.624,288.737 427.791,290.07 423,291.5C 422.311,290.643 421.478,289.977 420.5,289.5C 419.5,290.833 418.5,290.833 417.5,289.5C 417.167,289.667 416.833,289.833 416.5,290C 418.255,290.72 419.089,291.887 419,293.5C 417.16,292.167 416.66,292.334 417.5,294C 414.992,294.654 412.826,295.821 411,297.5C 409.434,296.939 408.101,297.606 407,299.5C 407.074,325.55 406.241,351.55 404.5,377.5C 404.507,379.369 404.84,381.036 405.5,382.5C 405.5,383.167 405.167,383.5 404.5,383.5C 401.497,386.088 399.664,389.421 399,393.5C 394.314,395.601 392.147,398.935 392.5,403.5C 390.049,406.277 387.049,408.277 383.5,409.5C 378.337,411.183 373.004,411.85 367.5,411.5C 367.5,412.5 367.5,413.5 367.5,414.5C 349.257,414.174 331.09,414.508 313,415.5C 312.5,437.164 312.333,458.831 312.5,480.5C 312.5,482.167 312.5,483.833 312.5,485.5C 243.5,485.5 174.5,485.5 105.5,485.5C 104.674,454.238 104.174,422.905 104,391.5C 102.477,378.574 99.3101,366.074 94.5,354C 94.1639,352.97 93.4972,352.47 92.5,352.5C 88.7529,345.337 84.7529,338.337 80.5,331.5C 77.7274,325.47 74.0607,319.97 69.5,315C 69.8333,314.667 70.1667,314.333 70.5,314C 68.587,312.276 66.587,310.776 64.5,309.5C 64.6107,308.883 64.944,308.383 65.5,308C 60.6926,301.551 56.5259,294.717 53,287.5C 52.2797,285.888 52.4464,284.388 53.5,283C 52.1719,280.71 50.5053,279.876 48.5,280.5C 48.5,280.167 48.5,279.833 48.5,279.5C 32.4513,237.196 30.2847,194.196 42,150.5C 47.3842,137.006 52.8842,123.673 58.5,110.5C 58.3284,109.508 58.6618,108.842 59.5,108.5C 59.81,109.738 60.31,109.738 61,108.5C 68.6375,97.0402 76.8042,86.0402 85.5,75.5C 91.598,68.0637 98.598,61.7303 106.5,56.5C 113.018,53.7381 118.684,49.7381 123.5,44.5C 135.95,39.1089 148.283,33.4422 160.5,27.5C 164.502,25.3902 168.835,24.0569 173.5,23.5C 187.841,20.6257 202.341,18.959 217,18.5C 227.765,19.7932 238.599,20.6265 249.5,21C 259.417,23.5645 269.417,25.7312 279.5,27.5 Z M 191.5,142.5 C 191.833,142.5 192.167,142.5 192.5,142.5C 196.604,144.725 200.604,147.225 204.5,150C 209.377,155.213 214.544,160.046 220,164.5C 224.657,161.01 228.823,157.01 232.5,152.5C 237.021,148.409 242.021,145.076 247.5,142.5C 260.136,138.85 272.136,140.183 283.5,146.5C 290.213,151.249 295.546,157.249 299.5,164.5C 302.511,173.313 303.178,182.313 301.5,191.5C 300.068,197.031 297.568,202.031 294,206.5C 288.627,212.037 283.46,217.704 278.5,223.5C 270.383,230.442 262.716,237.775 255.5,245.5C 248.5,251.833 241.833,258.5 235.5,265.5C 230.167,270.167 225.167,275.167 220.5,280.5C 213.228,274.897 206.562,268.564 200.5,261.5C 194.158,254.159 187.158,247.492 179.5,241.5C 176.848,237.183 173.515,233.516 169.5,230.5C 162.5,222.833 155.167,215.5 147.5,208.5C 144.903,204.966 142.57,201.3 140.5,197.5C 135.945,184.383 136.945,171.717 143.5,159.5C 147.217,153.45 152.217,148.783 158.5,145.5C 169.064,140.128 180.064,139.128 191.5,142.5 Z"/></g>
<g><path style="opacity:1" fill="#2c7a26" d="M 279.5,27.5 C 269.417,25.7312 259.417,23.5645 249.5,21C 238.599,20.6265 227.765,19.7932 217,18.5C 202.341,18.959 187.841,20.6257 173.5,23.5C 200.83,16.5294 228.497,15.6961 256.5,21C 264.503,22.4136 272.169,24.5802 279.5,27.5 Z"/></g>
<g><path style="opacity:0.925" fill="#2c7828" d="M 280.5,27.5 C 289.922,30.7144 298.922,34.7144 307.5,39.5C 297.793,36.6171 288.793,32.6171 280.5,27.5 Z"/></g>
<g><path style="opacity:0.98" fill="#267523" d="M 160.5,27.5 C 148.283,33.4422 135.95,39.1089 123.5,44.5C 134.924,36.9564 147.257,31.2897 160.5,27.5 Z"/></g>
<g><path style="opacity:0.949" fill="#267322" d="M 123.5,44.5 C 118.684,49.7381 113.018,53.7381 106.5,56.5C 111.607,51.7297 117.273,47.7297 123.5,44.5 Z"/></g>
<g><path style="opacity:0.949" fill="#20711d" d="M 85.5,75.5 C 76.8042,86.0402 68.6375,97.0402 61,108.5C 60.31,109.738 59.81,109.738 59.5,108.5C 66.6728,96.3267 75.3395,85.3267 85.5,75.5 Z"/></g>
<g><path style="opacity:1" fill="#2b7626" d="M 346.5,67.5 C 350.067,69.5566 353.234,72.2232 356,75.5C 359.713,79.7077 363.213,84.041 366.5,88.5C 365.761,88.631 365.094,88.4643 364.5,88C 359.223,81.7144 353.557,75.881 347.5,70.5C 346.873,69.5832 346.539,68.5832 346.5,67.5 Z"/></g>
<g><path style="opacity:1" fill="#267521" d="M 375.5,101.5 C 380.167,106.824 383.834,112.824 386.5,119.5C 385.542,119.047 384.708,118.381 384,117.5C 381.311,112.008 378.477,106.674 375.5,101.5 Z"/></g>
<g><path style="opacity:1" fill="#287824" d="M 386.5,119.5 C 394.973,135.135 400.64,151.801 403.5,169.5C 398.88,152.521 393.213,135.854 386.5,119.5 Z"/></g>
<g><path style="opacity:0.949" fill="#2d7629" d="M 191.5,142.5 C 180.064,139.128 169.064,140.128 158.5,145.5C 157.227,144.923 157.227,144.257 158.5,143.5C 168.135,139.681 178.135,138.515 188.5,140C 189.942,140.377 190.942,141.21 191.5,142.5 Z"/></g>
<g><path style="opacity:1" fill="#367f33" d="M 283.5,146.5 C 272.136,140.183 260.136,138.85 247.5,142.5C 248.842,141.207 250.509,140.374 252.5,140C 261.647,138.955 270.647,139.621 279.5,142C 281.384,143.049 282.718,144.549 283.5,146.5 Z"/></g>
<g><path style="opacity:1" fill="#34802e" d="M 283.5,146.5 C 286.167,147.167 288.833,147.833 291.5,148.5C 294.451,153.066 297.118,158.399 299.5,164.5C 295.546,157.249 290.213,151.249 283.5,146.5 Z"/></g>
<g><path style="opacity:1" fill="#387f31" d="M 192.5,142.5 C 196.105,142.799 199.439,143.965 202.5,146C 207.982,150.315 212.982,155.149 217.5,160.5C 218.689,161.429 220.022,161.762 221.5,161.5C 221.5,160.5 221.5,159.5 221.5,158.5C 222.873,158.657 224.207,158.49 225.5,158C 224.167,157.333 224.167,156.667 225.5,156C 226.448,155.517 227.448,155.351 228.5,155.5C 228.343,154.127 228.51,152.793 229,151.5C 230.011,152.337 231.178,152.67 232.5,152.5C 228.823,157.01 224.657,161.01 220,164.5C 214.544,160.046 209.377,155.213 204.5,150C 200.604,147.225 196.604,144.725 192.5,142.5 Z"/></g>
<g><path style="opacity:0.937" fill="#2d7929" d="M 299.5,164.5 C 301.48,165.848 302.647,167.848 303,170.5C 303.167,174 303.333,177.5 303.5,181C 303.488,184.902 302.821,188.402 301.5,191.5C 303.178,182.313 302.511,173.313 299.5,164.5 Z"/></g>
<g><path style="opacity:0.959" fill="#2d7827" d="M 143.5,159.5 C 136.945,171.717 135.945,184.383 140.5,197.5C 138.228,196.277 137.061,194.277 137,191.5C 135.221,180.627 136.721,170.293 141.5,160.5C 141.957,159.702 142.624,159.369 143.5,159.5 Z"/></g>
<g><path style="opacity:0.992" fill="#297824" d="M 58.5,110.5 C 52.8842,123.673 47.3842,137.006 42,150.5C 30.2847,194.196 32.4513,237.196 48.5,279.5C 27.3714,230.041 27.2047,180.374 48,130.5C 50.8561,123.38 54.3561,116.713 58.5,110.5 Z"/></g>
<g><path style="opacity:0.949" fill="#24721f" d="M 409.5,187.5 C 421.282,204.294 432.282,221.627 442.5,239.5C 436.799,232.618 431.632,225.284 427,217.5C 420.885,207.645 415.052,197.645 409.5,187.5 Z"/></g>
<g><path style="opacity:1" fill="#3f7f38" d="M 147.5,208.5 C 155.167,215.5 162.5,222.833 169.5,230.5C 168.883,230.611 168.383,230.944 168,231.5C 160.623,224.291 153.79,216.625 147.5,208.5 Z"/></g>
<g><path style="opacity:1" fill="#2b7125" d="M 278.5,223.5 C 277.565,225.861 276.232,228.028 274.5,230C 269.833,234.333 265.167,238.667 260.5,243C 258.922,244.094 257.255,244.928 255.5,245.5C 262.716,237.775 270.383,230.442 278.5,223.5 Z"/></g>
<g><path style="opacity:0.992" fill="#277624" d="M 442.5,239.5 C 448.807,248.094 454.641,257.094 460,266.5C 460.801,269.367 460.634,272.034 459.5,274.5C 459.453,271.432 458.953,268.432 458,265.5C 452.069,257.306 446.902,248.64 442.5,239.5 Z"/></g>
<g><path style="opacity:1" fill="#33792b" d="M 255.5,245.5 C 255.123,247.258 254.456,248.925 253.5,250.5C 253.709,251.086 254.043,251.586 254.5,252C 249.295,252.926 245.628,255.759 243.5,260.5C 240.804,262.211 238.138,263.878 235.5,265.5C 241.833,258.5 248.5,251.833 255.5,245.5 Z"/></g>
<g><path style="opacity:1" fill="#44813b" d="M 179.5,241.5 C 187.158,247.492 194.158,254.159 200.5,261.5C 192.225,256.227 185.225,249.56 179.5,241.5 Z"/></g>
<g><path style="opacity:0.741" fill="#407c37" d="M 235.5,265.5 C 234.559,267.466 233.559,269.466 232.5,271.5C 228.469,274.541 224.469,277.541 220.5,280.5C 225.167,275.167 230.167,270.167 235.5,265.5 Z"/></g>
<g><path style="opacity:0.706" fill="#357c31" d="M 459.5,275.5 C 458.972,276.721 458.305,277.887 457.5,279C 451.377,282.397 445.044,285.23 438.5,287.5C 438.389,286.883 438.056,286.383 437.5,286C 445.545,283.809 452.879,280.309 459.5,275.5 Z"/></g>
<g><path style="opacity:0.984" fill="#2d7b29" d="M 64.5,309.5 C 58.3723,300.347 53.039,290.68 48.5,280.5C 50.5053,279.876 52.1719,280.71 53.5,283C 52.4464,284.388 52.2797,285.888 53,287.5C 56.5259,294.717 60.6926,301.551 65.5,308C 64.944,308.383 64.6107,308.883 64.5,309.5 Z"/></g>
<g><path style="opacity:0.911" fill="#187216" d="M 437.5,287.5 C 428.042,292.058 418.375,296.391 408.5,300.5C 407.667,325.493 407.167,350.493 407,375.5C 406.56,377.866 406.06,380.199 405.5,382.5C 404.84,381.036 404.507,379.369 404.5,377.5C 406.241,351.55 407.074,325.55 407,299.5C 408.101,297.606 409.434,296.939 411,297.5C 412.826,295.821 414.992,294.654 417.5,294C 416.66,292.334 417.16,292.167 419,293.5C 419.089,291.887 418.255,290.72 416.5,290C 416.833,289.833 417.167,289.667 417.5,289.5C 418.5,290.833 419.5,290.833 420.5,289.5C 421.478,289.977 422.311,290.643 423,291.5C 427.791,290.07 432.624,288.737 437.5,287.5 Z"/></g>
<g><path style="opacity:0.753" fill="#357e32" d="M 64.5,309.5 C 66.587,310.776 68.587,312.276 70.5,314C 70.1667,314.333 69.8333,314.667 69.5,315C 74.0607,319.97 77.7274,325.47 80.5,331.5C 74.6894,324.559 69.3561,317.226 64.5,309.5 Z"/></g>
<g><path style="opacity:1" fill="#287a25" d="M 404.5,383.5 C 402.54,391.425 398.54,398.091 392.5,403.5C 392.147,398.935 394.314,395.601 399,393.5C 399.664,389.421 401.497,386.088 404.5,383.5 Z"/></g>
<g><path style="opacity:0.983" fill="#1a6e16" d="M 92.5,352.5 C 93.4972,352.47 94.1639,352.97 94.5,354C 99.3101,366.074 102.477,378.574 104,391.5C 104.174,422.905 104.674,454.238 105.5,485.5C 103.835,454.68 102.835,423.68 102.5,392.5C 101.321,378.599 97.9878,365.266 92.5,352.5 Z"/></g>
<g><path style="opacity:0.98" fill="#277821" d="M 383.5,409.5 C 382.942,410.79 381.942,411.623 380.5,412C 375.072,414.365 369.405,415.699 363.5,416C 347.17,416.5 330.837,416.667 314.5,416.5C 313.722,437.824 313.389,459.157 313.5,480.5C 313.167,480.5 312.833,480.5 312.5,480.5C 312.333,458.831 312.5,437.164 313,415.5C 331.09,414.508 349.257,414.174 367.5,414.5C 367.5,413.5 367.5,412.5 367.5,411.5C 373.004,411.85 378.337,411.183 383.5,409.5 Z"/></g>
<g><path style="opacity:0.957" fill="#317430" d="M 102.5,392.5 C 102.835,423.68 103.835,454.68 105.5,485.5C 174.5,485.5 243.5,485.5 312.5,485.5C 312.5,483.833 312.5,482.167 312.5,480.5C 312.833,480.5 313.167,480.5 313.5,480.5C 313.5,482.5 313.5,484.5 313.5,486.5C 243.167,486.5 172.833,486.5 102.5,486.5C 102.5,455.167 102.5,423.833 102.5,392.5 Z"/></g>
</svg>
